# xmcd CD database file
#
# Track frame offsets:
#	150
#	16210
#	29418
#	42395
#	54136
#	66575
#	79891
#	94150
#	104616
#	116438
#	128435
#	141721
#	157893
#	168511
#	179899
#	192419
#	206972
#	217964
#	225955
#	237102
#	250324
#	262982
#	271013
#	276152
#	290461
#	302286
#	321537
#	331909
#
# Disc length: 4479 seconds
#
# Revision: 0
# Processed by: cddbd v1.5.2PL0 Copyright (c) Steve Scherf et al.
# Submitted via: CDex 1.51
#
DISCID=9b117d1c
DTITLE=Didier MALHERBE - L'Empreinte du Vent
DYEAR=2003
DGENRE=Jazz
TTITLE0=Windprints
TTITLE1=Looparina
TTITLE2=Mr Leblanc
TTITLE3=N.Y.C. Awakes
TTITLE4=Racing Breeze
TTITLE5=Zeff and Zéphir
TTITLE6=The Nighthawk
TTITLE7=Street corner
TTITLE8=Nino da sopra
TTITLE9=Still journey
TTITLE10=Sand castle
TTITLE11=Cycle of the Winds
TTITLE12=Taragato Spririt
TTITLE13=Soprano soul
TTITLE14=Bamboo moon
TTITLE15=Celtouk
TTITLE16=Tale of the woods
TTITLE17=Call of the forest
TTITLE18=Dawn chorus
TTITLE19=Dancing branches
TTITLE20=Duduk duet n°1
TTITLE21=Duduk duet n°2
TTITLE22=Simoon
TTITLE23=Moonsoon
TTITLE24=Windswept
TTITLE25=Dust devils
TTITLE26=Desert wind
TTITLE27=Whispering winds
EXTD=YEAR: 2003
EXTT0=
EXTT1=
EXTT2=
EXTT3=
EXTT4=
EXTT5=
EXTT6=
EXTT7=
EXTT8=
EXTT9=
EXTT10=
EXTT11=
EXTT12=
EXTT13=
EXTT14=
EXTT15=
EXTT16=
EXTT17=
EXTT18=
EXTT19=
EXTT20=
EXTT21=
EXTT22=
EXTT23=
EXTT24=
EXTT25=
EXTT26=
EXTT27=
PLAYORDER=
